<?xml version="1.0" standalone="no"?>
<!DOCTYPE svg PUBLIC "-//W3C//DTD SVG 20010904//EN"
 "http://www.w3.org/TR/2001/REC-SVG-20010904/DTD/svg10.dtd">
<svg version="1.0" xmlns="http://www.w3.org/2000/svg"
 width="192.000000pt" height="256.000000pt" viewBox="0 0 192.000000 256.000000"
 preserveAspectRatio="xMidYMid meet">

<g transform="translate(0.000000,256.000000) scale(0.100000,-0.100000)"
fill="#000000" stroke="none">
<path d="M652 1866 c-56 -26 -62 -55 -62 -317 l0 -231 -25 -20 c-14 -11 -25
-27 -25 -36 0 -13 -2 -13 -15 4 -13 16 -16 17 -25 4 -31 -46 -24 -95 23 -146
25 -28 42 -37 75 -40 37 -3 42 -2 42 17 0 11 -5 29 -10 40 -9 16 -7 19 13 19
43 0 47 15 47 181 l0 157 64 -24 c102 -37 226 -54 386 -54 80 1 165 5 190 10
25 4 45 8 46 7 0 -1 -16 -71 -36 -156 -21 -84 -35 -162 -33 -172 3 -11 16 -22
29 -25 19 -5 22 -9 14 -24 -21 -40 -13 -57 32 -63 35 -5 48 -1 75 19 60 45 80
116 47 163 -13 18 -18 20 -25 10 -8 -11 -12 -10 -24 5 -8 11 -15 29 -15 40 0
19 45 224 86 393 19 80 11 120 -30 146 -40 26 -52 25 -106 -9 l-55 -34 -27 54
c-23 46 -33 56 -60 61 -18 3 -62 10 -98 16 -36 6 -155 13 -265 15 -164 4 -206
2 -233 -10z"/>
<path d="M746 1374 c-9 -33 5 -44 54 -44 19 0 62 -7 95 -14 33 -8 61 -13 62
-12 2 1 5 16 9 32 l6 31 -89 12 c-48 7 -98 15 -109 18 -17 3 -23 -1 -28 -23z"/>
<path d="M1080 1320 c0 -29 1 -30 48 -30 27 0 75 -5 107 -11 63 -11 75 -6 75
37 0 19 -7 22 -82 27 -146 12 -148 11 -148 -23z"/>
<path d="M832 1294 c-27 -19 -28 -55 -2 -79 17 -15 24 -16 45 -7 32 15 36 75
6 92 -25 13 -22 13 -49 -6z"/>
<path d="M1121 1256 c-17 -20 -10 -67 11 -79 27 -18 68 7 68 41 0 15 -5 33
-12 40 -16 16 -53 15 -67 -2z"/>
<path d="M940 1205 c-7 -8 -10 -24 -7 -34 4 -16 -3 -21 -38 -30 -47 -12 -98
-61 -89 -86 7 -18 82 -29 139 -22 28 4 56 1 78 -8 18 -7 56 -17 84 -21 47 -6
51 -4 58 16 10 30 -20 69 -73 97 -24 12 -38 24 -32 28 15 9 12 41 -6 59 -20
21 -97 21 -114 1z"/>
<path d="M765 924 c11 -8 59 -38 107 -65 l88 -50 75 42 c41 24 72 46 68 50 -8
7 -288 39 -333 39 -24 -1 -25 -1 -5 -16z"/>
<path d="M145 816 c-32 -32 -28 -41 9 -26 15 5 57 10 94 10 65 1 66 1 40 16
-15 8 -47 17 -72 20 -39 6 -48 3 -71 -20z"/>
<path d="M1647 745 c-57 -20 -56 -25 4 -25 30 0 70 -4 88 -10 45 -13 49 -7 18
24 -29 29 -54 32 -110 11z"/>
<path d="M44 719 c-9 -16 15 -122 37 -158 45 -75 109 -86 239 -41 52 18 99 38
105 45 5 6 36 22 68 35 31 12 57 27 57 32 0 16 -40 78 -51 78 -5 0 -55 -21
-111 -47 -86 -39 -113 -46 -165 -47 -52 -1 -66 3 -89 24 -14 14 -33 40 -40 58
-14 32 -37 42 -50 21z"/>
<path d="M1355 636 l-30 -24 27 -29 c15 -16 50 -42 78 -58 27 -17 50 -34 50
-40 0 -16 147 -68 205 -73 87 -7 130 26 160 124 19 64 19 100 -1 108 -20 8
-17 11 -39 -38 -48 -103 -181 -99 -339 10 -36 24 -69 44 -73 44 -4 0 -21 -11
-38 -24z"/>
<path d="M815 450 c-27 -5 -72 -9 -98 -9 -56 -1 -69 -19 -44 -63 9 -17 17 -44
17 -61 0 -18 3 -56 6 -84 l7 -53 113 0 114 0 0 90 0 90 30 0 30 0 0 -90 0 -90
115 0 c103 0 115 2 115 18 2 36 17 208 21 221 8 28 -300 50 -426 31z"/>
</g>
</svg>
